<svg xmlns="http://www.w3.org/2000/svg" viewBox="0 0 256 256" role="img" aria-labelledby="title desc">
  <title id="title">Rootloom icon</title>
  <desc id="desc">A continuous fiber grows from evidence roots, passes through five capability frames, and branches toward a verified result.</desc>
  <defs>
    <linearGradient id="bg" x1="24" y1="18" x2="232" y2="238" gradientUnits="userSpaceOnUse">
      <stop stop-color="#17162B"/>
      <stop offset="0.58" stop-color="#211D3D"/>
      <stop offset="1" stop-color="#0C2D30"/>
    </linearGradient>
    <linearGradient id="fiber" x1="78" y1="218" x2="181" y2="31" gradientUnits="userSpaceOnUse">
      <stop stop-color="#58D8B1"/>
      <stop offset="0.55" stop-color="#8A78FF"/>
      <stop offset="1" stop-color="#B5A9FF"/>
    </linearGradient>
    <filter id="glow" x="-80%" y="-80%" width="260%" height="260%">
      <feGaussianBlur stdDeviation="4" result="blur"/>
      <feMerge><feMergeNode in="blur"/><feMergeNode in="SourceGraphic"/></feMerge>
    </filter>
  </defs>
  <rect x="10" y="10" width="236" height="236" rx="54" fill="url(#bg)"/>

  <g fill="#292541" stroke="#665E87" stroke-width="2">
    <rect x="71" y="70" width="112" height="19" rx="8"/>
    <rect x="71" y="96" width="112" height="19" rx="8"/>
    <rect x="71" y="122" width="112" height="19" rx="8"/>
    <rect x="71" y="148" width="112" height="19" rx="8"/>
    <rect x="71" y="174" width="112" height="19" rx="8"/>
  </g>

  <g fill="none" stroke="url(#fiber)" stroke-linecap="round" stroke-linejoin="round" filter="url(#glow)">
    <path d="M91 218C111 207 118 203 127 191C137 178 116 171 127 160C138 149 116 144 127 134C138 123 116 118 127 108C138 97 117 92 128 81C139 70 130 63 130 58" stroke-width="6"/>
    <path d="M130 59C119 52 107 47 91 43M132 58C132 47 132 40 130 31M133 59C146 52 157 47 170 43" stroke-width="3"/>
    <path d="M126 191C111 203 99 208 83 219M128 193C128 207 128 214 128 224M130 191C143 202 155 208 174 217" stroke-width="3"/>
  </g>

  <g fill="#75E0BE" stroke="#D9FFF2" stroke-width="2">
    <circle cx="91" cy="43" r="5"/>
    <circle cx="130" cy="31" r="5"/>
    <circle cx="170" cy="43" r="5"/>
    <circle cx="83" cy="219" r="5"/>
    <circle cx="128" cy="224" r="5"/>
    <circle cx="174" cy="217" r="5"/>
  </g>

  <g transform="translate(181 42)" filter="url(#glow)">
    <rect width="35" height="35" rx="11" fill="#332C46" stroke="#FFB45D" stroke-width="2"/>
    <path d="m9 18 6 6 12-14" fill="none" stroke="#FFC676" stroke-width="4" stroke-linecap="round" stroke-linejoin="round"/>
  </g>
</svg>
